<svg width="1600" height="1600" version="1.1" xmlns="http://www.w3.org/2000/svg"><path fill="rgb(0,0,0)" stroke="rgb(0,0,0)" stroke-width="1" opacity="1" d="M 0 0 L 1600 0 L 1600 1600 L 0 1600 L 0 0 Z M 640 160 L 640 960 L 321 960 L 320 961 L 320 1040 L 240 1040 L 240 1200 L 320 1200 L 320 1280 L 640 1280 L 640 1280 L 640 1200 L 720 1200 L 720 400 L 880 400 L 880 480 L 1040 480 L 1040 560 L 1200 560 L 1200 640 L 1280 640 L 1280 1200 L 961 1200 L 960 1201 L 960 1280 L 880 1280 L 880 1440 L 960 1440 L 960 1520 L 1280 1520 L 1280 1520 L 1280 1440 L 1360 1440 L 1360 400 L 1200 400 L 1200 320 L 1040 320 L 1040 240 L 880 240 L 880 161 L 880 160 L 640 160 Z " /><path fill="rgb(118,255,3)" stroke="rgb(118,255,3)" stroke-width="1" opacity="1" d="M 640 160 L 879.5 160 L 880 160.5 L 880 240 L 1040 240 L 1040 320 L 1200 320 L 1200 400 L 1360 400 L 1360 1440 L 1280 1440 L 1280 1519.5 L 1279.5 1520 L 960 1520 L 960 1440 L 880 1440 L 880 1280 L 960 1280 L 960 1200.5 L 960.5 1200 L 1280 1200 L 1280 640 L 1200 640 L 1200 560 L 1040 560 L 1040 480 L 880 480 L 880 400 L 720 400 L 720 1200 L 640 1200 L 640 1279.5 L 639.5 1280 L 320 1280 L 320 1200 L 240 1200 L 240 1040 L 320 1040 L 320 960.5 L 320.5 960 L 640 960 L 640 160 Z " /></svg>