<svg width="1600" height="1600" version="1.1" xmlns="http://www.w3.org/2000/svg"><path fill="rgb(0,0,0)" stroke="rgb(0,0,0)" stroke-width="1" opacity="1" d="M 0 0 L 1600 0 L 1600 1600 L 0 1600 L 0 0 Z M 1280 80 L 1280 160 L 1120 160 L 1120 240 L 961 240 L 960 241 L 960 320 L 800 320 L 800 400 L 640 400 L 640 1200 L 321 1200 L 320 1201 L 320 1280 L 240 1280 L 240 1440 L 320 1440 L 320 1520 L 640 1520 L 640 1520 L 640 1440 L 720 1440 L 720 640 L 800 640 L 800 560 L 960 560 L 960 480 L 1120 480 L 1120 400 L 1280 400 L 1280 960 L 961 960 L 960 961 L 960 1040 L 880 1040 L 880 1200 L 960 1200 L 960 1280 L 1280 1280 L 1280 1280 L 1280 1200 L 1360 1200 L 1360 81 L 1360 80 L 1280 80 Z " /><path fill="rgb(118,255,3)" stroke="rgb(118,255,3)" stroke-width="1" opacity="1" d="M 1280 80 L 1359.5 80 L 1360 80.5 L 1360 1200 L 1280 1200 L 1280 1279.5 L 1279.5 1280 L 960 1280 L 960 1200 L 880 1200 L 880 1040 L 960 1040 L 960 960.5 L 960.5 960 L 1280 960 L 1280 400 L 1120 400 L 1120 480 L 960 480 L 960 560 L 800 560 L 800 640 L 720 640 L 720 1440 L 640 1440 L 640 1519.5 L 639.5 1520 L 320 1520 L 320 1440 L 240 1440 L 240 1280 L 320 1280 L 320 1200.5 L 320.5 1200 L 640 1200 L 640 400 L 800 400 L 800 320 L 960 320 L 960 240.5 L 960.5 240 L 1120 240 L 1120 160 L 1280 160 L 1280 80 Z " /></svg>